<svg width="32" height="32" viewBox="0 0 32 32" fill="none" xmlns="http://www.w3.org/2000/svg">
    <path d="M24.6674 14.3873H16.3337V16.5956C16.3337 18.0678 17.1224 18.8039 18.6997 18.8039H19.5147V20.2235C19.1992 20.574 18.4193 20.758 17.175 20.7756C15.9306 20.7931 14.9316 20.3725 14.178 19.5137C13.4244 18.6549 13.0475 17.5639 13.0475 16.2407C13.0475 14.9087 13.3849 13.8045 14.0597 12.9282C14.7432 12.0431 15.7904 11.6094 17.2013 11.6269C18.6121 11.6444 19.7338 11.8679 20.5663 12.2973C21.4075 12.7179 22.0472 12.9282 22.4854 12.9282C22.9323 12.9282 23.3836 12.6653 23.8393 12.1395C24.3037 11.605 24.5272 11.0003 24.5096 10.3256C24.4921 9.65084 23.8393 8.92789 22.5511 8.15673C21.2717 7.38558 19.4008 7 16.9384 7C14.4847 7 12.3815 7.85441 10.6289 9.56321C8.87631 11.2632 8 13.4847 8 16.2275C8 18.9704 8.88069 21.1918 10.6421 22.8918C12.4035 24.5831 14.603 25.4288 17.2407 25.4288C19.8783 25.4288 21.7756 25.0607 22.9323 24.3246C24.089 23.5885 24.6674 22.6772 24.6674 21.5905V14.3873Z" fill="#1A1A1A"/>
</svg>
