<svg width="158" height="31" viewBox="0 0 158 31" fill="none" xmlns="http://www.w3.org/2000/svg">
    <path d="M8.79377 14.0374H17.1275V21.2406C17.1275 22.3273 16.5491 23.2386 15.3924 23.9747C14.2357 24.7108 12.3384 25.0789 9.70075 25.0789C7.06306 25.0789 4.86352 24.2332 3.10214 22.5419C1.34075 20.8419 0.460063 18.6205 0.460063 15.8776C0.460063 13.1348 1.33637 10.9133 3.08899 9.21327C4.84161 7.50447 6.94476 6.65006 9.39843 6.65006C11.8609 6.65006 13.7318 7.03564 15.0112 7.80679C16.2994 8.57795 16.9522 9.3009 16.9697 9.97566C16.9873 10.6504 16.7638 11.2551 16.2994 11.7896C15.8437 12.3154 15.3924 12.5783 14.9455 12.5783C14.5073 12.5783 13.8676 12.368 13.0264 11.9474C12.1939 11.518 11.0722 11.2945 9.66132 11.277C8.25046 11.2595 7.20327 11.6932 6.51975 12.5783C5.84499 13.4546 5.50761 14.5588 5.50761 15.8908C5.50761 17.214 5.88442 18.305 6.63805 19.1638C7.39168 20.0226 8.39067 20.4432 9.63503 20.4257C10.8794 20.4081 11.6593 20.2241 11.9748 19.8736V18.454H11.1598C9.58245 18.454 8.79377 17.7179 8.79377 16.2457V14.0374ZM29.3652 17.3761L31.7312 20.6097C32.3709 21.3721 32.6776 22.0644 32.6513 22.6865C32.625 23.3 32.3096 23.852 31.7049 24.3428C31.109 24.8335 30.4781 25.0657 29.8121 25.0394C29.1461 25.0219 28.4669 24.6144 27.7747 23.817L23.6604 18.1911V22.634C23.6604 24.1587 22.7928 24.9211 21.0577 24.9211H18.4551V7.17585H21.0577H26.9465C28.4012 7.17585 29.6105 7.73669 30.5745 8.85837C31.5384 9.97128 32.0204 11.1674 32.0204 12.4469C32.0204 14.734 31.1353 16.3771 29.3652 17.3761ZM23.6604 10.7512V14.7997H25.1589C26.6311 14.7997 27.3672 14.125 27.3672 12.7755C27.3672 11.426 26.6311 10.7512 25.1589 10.7512H23.6604ZM42.8516 17.5864L41.7211 14.5106L40.5907 17.5864H42.8516ZM39.0396 21.7927L38.5401 23.1335C38.0932 24.3252 37.3571 24.9211 36.3318 24.9211C35.3153 24.9211 34.5836 24.61 34.1367 23.9879C33.6985 23.3569 33.4794 22.7917 33.4794 22.2922C33.4794 21.7927 33.589 21.302 33.8081 20.82L40.0255 7.17585H41.708C42.8297 7.17585 43.6578 7.77174 44.1923 8.96352L49.6342 20.82C49.8621 21.3107 49.976 21.8058 49.976 22.3053C49.976 22.8048 49.7613 23.3657 49.3319 23.9879C48.9025 24.61 48.1664 24.9211 47.1236 24.9211C46.0895 24.9211 45.3491 24.3252 44.9021 23.1335L44.4026 21.7927H39.0396ZM61.8325 15.0889V9.46302C61.8325 7.93824 62.7 7.17585 64.4351 7.17585H67.0377V22.634C67.0377 24.1587 66.1702 24.9211 64.4351 24.9211C63.4712 24.9211 62.7088 24.5881 62.1479 23.9221L56.3117 16.9818V22.634C56.3117 24.1587 55.4441 24.9211 53.7091 24.9211H51.1064V7.18899L53.7091 7.17585C54.822 7.16709 55.6194 7.52637 56.1014 8.25371L61.8325 15.0889ZM76.239 24.9211H68.3522V7.17585H76.239C79.1396 7.50885 81.1376 9.1125 82.2329 11.9868C82.7763 13.3275 83.0479 14.6858 83.0479 16.0616C83.0479 17.4287 82.7763 18.7782 82.2329 20.1102C81.1376 22.9845 79.1396 24.5881 76.239 24.9211ZM78.2238 15.8908C78.2151 12.552 76.9751 10.8388 74.5039 10.7512H73.5575V21.2669L74.5039 21.2932C76.9926 21.0303 78.2326 19.2295 78.2238 15.8908ZM98.5849 24.9211H90.6981V7.17585H98.5849C101.485 7.50885 103.483 9.1125 104.579 11.9868C105.122 13.3275 105.394 14.6858 105.394 16.0616C105.394 17.4287 105.122 18.7782 104.579 20.1102C103.483 22.9845 101.485 24.5881 98.5849 24.9211ZM100.57 15.8908C100.561 12.552 99.321 10.8388 96.8498 10.7512H95.9034V21.2669L96.8498 21.2932C99.3385 21.0303 100.579 19.2295 100.57 15.8908ZM117.434 17.3761L119.8 20.6097C120.44 21.3721 120.747 22.0644 120.72 22.6865C120.694 23.3 120.379 23.852 119.774 24.3428C119.178 24.8335 118.547 25.0657 117.881 25.0394C117.215 25.0219 116.536 24.6144 115.844 23.817L111.73 18.1911V22.634C111.73 24.1587 110.862 24.9211 109.127 24.9211H106.524V7.17585H109.127H115.016C116.47 7.17585 117.68 7.73669 118.644 8.85837C119.608 9.97128 120.09 11.1674 120.09 12.4469C120.09 14.734 119.204 16.3771 117.434 17.3761ZM111.73 10.7512V14.7997H113.228C114.7 14.7997 115.436 14.125 115.436 12.7755C115.436 11.426 114.7 10.7512 113.228 10.7512H111.73ZM126.951 22.634C126.951 24.1587 126.084 24.9211 124.348 24.9211H121.746V9.46302C121.746 7.93824 122.613 7.17585 124.348 7.17585H126.951V22.634ZM134.772 24.9737L133.905 23.1072L128.463 11.2507C128.2 10.6811 128.068 10.1641 128.068 9.69962C128.068 9.22642 128.239 8.67434 128.581 8.0434C128.923 7.41245 129.633 7.10136 130.71 7.11013C131.797 7.11889 132.616 7.72793 133.168 8.93723L136.349 15.8776L139.504 8.93723C140.056 7.72793 140.871 7.11889 141.949 7.11013C143.036 7.10136 143.75 7.41245 144.092 8.0434C144.433 8.67434 144.604 9.22642 144.604 9.69962C144.604 10.1641 144.473 10.6811 144.21 11.2507L138.768 23.1072C138.199 24.3515 137.388 24.9737 136.336 24.9737H134.772ZM154.634 24.9211H145.722V7.17585H156.658V9.26585C156.658 10.6592 155.983 11.3558 154.634 11.3558H150.927V13.9059H156.132V16.0091C156.132 17.4112 155.457 18.1122 154.108 18.1122H150.927V20.7411H156.658V22.8311C156.658 24.2245 155.983 24.9211 154.634 24.9211Z" fill="#1A1A1A"/>
</svg>
