<svg width="24" height="24" viewBox="0 0 24 24" fill="none" xmlns="http://www.w3.org/2000/svg">
    <path opacity="0.4" d="M10.96 2.05959L5.46005 4.11959C4.41005 4.51959 3.55005 5.75959 3.55005 6.88959V14.9896C3.55005 15.7996 4.08005 16.8696 4.73005 17.3496L10.23 21.4596C11.2 22.1896 12.79 22.1896 13.76 21.4596L19.26 17.3496C19.91 16.8596 20.4401 15.7996 20.4401 14.9896V6.88959C20.4401 5.76959 19.58 4.51959 18.53 4.12959L13.03 2.06959C12.47 1.84959 11.53 1.84959 10.96 2.05959Z" fill="#1A1A1A"/>
    <path d="M10.66 14.2301C10.47 14.2301 10.28 14.1601 10.13 14.0101L8.51999 12.4001C8.22999 12.1101 8.22999 11.6301 8.51999 11.3401C8.80999 11.0501 9.28999 11.0501 9.57999 11.3401L10.66 12.4201L14.43 8.65012C14.72 8.36012 15.2 8.36012 15.49 8.65012C15.78 8.94012 15.78 9.42012 15.49 9.71012L11.19 14.0101C11.04 14.1601 10.85 14.2301 10.66 14.2301Z" fill="#1A1A1A"/>
</svg>
